#!OML:ASF F:\VICON\USERDATA\INSTALL\Justin_Nancy\Justin_Nancy.ASF
:FULLY-SPECIFIED
:DEGREES
349
root -11.8144 17.3094 14.7078 2.35595 -51.5182 -1.70526
lowerback 5.62028 0.980819 -0.145768
upperback 0.151392 1.35621 2.28145
thorax -3.05482 0.687696 2.32391
lowerneck -14.5794 -3.89555 -10.803
upperneck 21.2034 -4.50908 6.84543
head 9.50359 -2.2788 3.60722
rclavicle 7.69794e-014 -5.56597e-015
rhumerus -27.5429 -11.5902 -79.2927
rradius 33.5607
rwrist 4.79971
rhand -12.0881 16.868
rfingers 7.12502
rthumb 13.9721 -12.6425
lclavicle 7.69794e-014 -5.56597e-015
lhumerus -35.2082 21.22 79.6595
lradius 18.4582
lwrist -18.4476
lhand -12.7658 24.9015
lfingers 7.12502
lthumb 13.319 54.4559
rfemur 5.4686 4.30635 27.321
rtibia 34.9573
rfoot -7.66856 1.0714
rtoes -4.5667
lfemur -24.7325 -0.500419 -21.0964
ltibia 24.1881
lfoot -2.33563 2.27452
ltoes 0.960724
350
root -11.9288 17.3293 14.8309 2.26572 -51.0746 -1.52068
lowerback 5.45809 0.85333 -0.158403
upperback 0.0394915 1.186 2.25354
thorax -3.07169 0.604154 2.31765
lowerneck -14.7661 -3.8215 -10.5845
upperneck 21.7793 -4.37914 6.46577
head 9.71479 -2.24866 3.46044
rclavicle 5.37216e-014 2.78299e-014
rhumerus -28.0697 -12.6861 -78.8976
rradius 33.1064
rwrist 5.47593
rhand -11.249 17.1977
rfingers 7.12502
rthumb 14.7806 -12.2552
lclavicle 5.37216e-014 2.78299e-014
lhumerus -35.419 21.118 79.641
lradius 18.6161
lwrist -18.249
lhand -12.9029 24.9624
lfingers 7.12502
lthumb 13.1868 54.5254
rfemur 4.57526 3.63539 26.9741
rtibia 36.8347
rfoot -5.52493 1.70316
rtoes -3.10932
lfemur -24.411 -0.124201 -21.5216
ltibia 24.4647
lfoot -2.80212 1.84484
ltoes -1.62441
351
root -12.0437 17.3506 14.9653 2.13603 -50.6883 -1.38893
lowerback 5.28564 0.750713 -0.0234672
upperback 0.0323525 1.05334 2.15135
thorax -2.97207 0.535262 2.1485
lowerneck -14.2835 -3.82827 -10.6872
upperneck 21.4463 -4.47514 6.76385
head 9.52458 -2.27381 3.56954
rclavicle 6.17723e-014 -7.95139e-016
rhumerus -28.4413 -13.4494 -78.7394
rradius 32.7093
rwrist 5.48378
rhand -11.4245 16.2711
rfingers 7.12502
rthumb 14.6115 -13.1942
lclavicle 6.17723e-014 -7.95139e-016
lhumerus -35.4896 20.8217 79.6471
lradius 18.9111
lwrist -18.0806
lhand -12.4687 25.1229
lfingers 7.12502
lthumb 13.6053 54.6583
rfemur 3.71904 2.96613 26.5724
rtibia 38.721
rfoot -3.3756 2.65176
rtoes -1.62763
lfemur -23.9016 -0.108723 -21.8445
ltibia 24.7106
lfoot -2.49558 2.09785
ltoes 2.08377
352
root -12.1591 17.3733 15.1128 1.96719 -50.3611 -1.33202
lowerback 5.13166 0.6795 0.289926
upperback 0.106174 0.969821 2.00716
thorax -2.79838 0.487511 1.83156
lowerneck -14.0177 -3.91302 -10.5535
upperneck 21.1455 -4.68249 6.93722
head 9.38968 -2.34185 3.57899
rclavicle 4.5472e-014 -6.75868e-015
rhumerus -28.6525 -14.1167 -78.8871
rradius 32.4092
rwrist 4.88027
rhand -12.7806 13.9169
rfingers 7.12502
rthumb 13.3047 -15.6384
lclavicle 4.5472e-014 -6.75868e-015
lhumerus -35.4322 20.5869 79.6344
lradius 19.1262
lwrist -18.1427
lhand -12.3011 25.2893
lfingers 7.12502
lthumb 13.7668 54.8138
rfemur 2.94101 2.34214 26.1408
rtibia 40.5707
rfoot -0.814239 3.65496
rtoes -0.402123
lfemur -23.1992 -0.388992 -22.1007
ltibia 24.8689
lfoot -2.47899 2.08686
ltoes 3.82798
353
root -12.2753 17.396 15.2239 1.74175 -51.3366 -1.25676
lowerback 5.24601 1.11846 0.11469
upperback 0.166905 1.54315 1.93188
thorax -2.81978 0.774961 1.80741
lowerneck -14.0771 -4.01978 -10.2665
upperneck 21.3195 -4.873 6.79833
head 9.46885 -2.42365 3.45895
rclavicle -5.56597e-015 -5.96354e-015
rhumerus -29.0404 -14.9051 -78.8056
rradius 32.1873
rwrist 4.74692
rhand -13.0414 13.1283
rfingers 7.12502
rthumb 13.0533 -16.4433
lclavicle -5.56597e-015 -5.96354e-015
lhumerus -35.3142 19.9211 79.8665
lradius 19.3926
lwrist -18.0603
lhand -12.1668 25.8163
lfingers 7.12502
lthumb 13.8962 55.332
rfemur 2.01849 3.06864 25.7776
rtibia 42.4847
rfoot 2.49438 4.30378
rtoes 2.48056
lfemur -22.3985 0.359937 -22.2565
ltibia 24.9303
lfoot -2.65867 2.16038
ltoes 4.04331
354
root -12.3826 17.41 15.3485 1.39859 -50.7117 -0.954917
lowerback 5.30324 0.81916 0.00190937
upperback 0.0880909 1.14152 1.99854
thorax -2.92403 0.577604 1.96944
lowerneck -15.4062 -3.9809 -9.6448
upperneck 23.0046 -4.6412 5.65373
head 10.2549 -2.39063 2.98749
rclavicle -1.08561e-013 -1.07344e-014
rhumerus -29.5386 -15.1475 -78.3648
rradius 31.7666
rwrist 5.49035
rhand -12.4149 14.3627
rfingers 7.12502
rthumb 13.6571 -15.1692
lclavicle -1.08561e-013 -1.07344e-014
lhumerus -35.5112 19.5128 80.1998
lradius 19.697
lwrist -17.4257
lhand -12.5292 25.7617
lfingers 7.12502
lthumb 13.547 55.3011
rfemur 0.963946 2.50736 25.3594
rtibia 44.485
rfoot 5.61888 4.788
rtoes 5.33985
lfemur -21.7336 0.0315486 -22.6892
ltibia 24.915
lfoot -2.69525 1.82783
ltoes 4.04258
355
root -12.4856 17.4199 15.4719 0.74349 -50.1655 -0.108914
lowerback 5.27783 0.535683 -0.442593
upperback 0.0387293 0.736942 1.95364
thorax -2.95152 0.383092 2.20494
lowerneck -13.3828 -3.88658 -11.3801
upperneck 21.2948 -4.66023 7.44801
head 9.35459 -2.36268 3.90908
rclavicle -8.47071e-014 -4.77083e-015
rhumerus -29.7919 -15.1556 -78.0966
rradius 31.2961
rwrist 5.86128
rhand -11.984 15.8774
rfingers 7.12502
rthumb 14.0725 -13.6262
lclavicle -8.47071e-014 -4.77083e-015
lhumerus -35.4915 19.2588 80.5131
lradius 19.9563
lwrist -16.4562
lhand -12.7505 25.1432
lfingers 7.12502
lthumb 13.3336 54.6966
rfemur -0.325052 1.97826 24.4988
rtibia 46.5843
rfoot 8.22004 5.54786
rtoes 6.28437
lfemur -21.0491 -0.242269 -23.5039
ltibia 24.6914
lfoot -2.7009 1.4914
ltoes 5.00709
356
root -12.596 17.4396 15.5696 0.315806 -51.0656 0.610821
lowerback 5.24501 0.862051 -1.0919
upperback -0.0146769 1.13085 1.81491
thorax -3.01471 0.589603 2.39624
lowerneck -14.2768 -3.86929 -10.7016
upperneck 22.0391 -4.55356 6.70285
head 9.73893 -2.33013 3.54925
rclavicle 9.14409e-015 -1.11319e-014
rhumerus -30.0384 -15.7018 -78.0889
rradius 30.9441
rwrist 6.10156
rhand -11.6687 16.2714
rfingers 7.12502
rthumb 14.3763 -13.2108
lclavicle 9.14409e-015 -1.11319e-014
lhumerus -35.2369 18.4029 80.8141
lradius 20.278
lwrist -15.4235
lhand -12.3426 25.0108
lfingers 7.12502
lthumb 13.7268 54.5381
rfemur -1.89366 2.89749 23.8028
rtibia 48.7251
rfoot 10.1042 6.28114
rtoes 7.42369
lfemur -20.4183 0.662257 -24.103
ltibia 24.3149
lfoot -2.51316 1.42676
ltoes 5.61596
357
root -12.7021 17.4652 15.6872 -0.711171 -50.6856 1.87445
lowerback 5.28835 0.735768 -1.81434
upperback -0.0289423 0.913008 1.59236
thorax -3.05064 0.491649 2.58989
lowerneck -13.7786 -3.82061 -11.1034
upperneck 21.582 -4.54161 7.19925
head 9.50375 -2.30732 3.79152
rclavicle 5.09137e-014 -1.59028e-015
rhumerus -30.2848 -16.0342 -78.013
rradius 30.5663
rwrist 6.47156
rhand -11.536 16.4987
rfingers 7.12502
rthumb 14.5041 -12.9743
lclavicle 5.09137e-014 -1.59028e-015
lhumerus -35.1402 17.8173 81.0474
lradius 20.6776
lwrist -15.119
lhand -11.8117 25.2129
lfingers 7.12502
lthumb 14.2385 54.7048
rfemur -3.18964 2.38525 22.6519
rtibia 50.8221
rfoot 10.6387 7.17379
rtoes 6.79727
lfemur -19.5983 0.486261 -25.1793
ltibia 23.9419
lfoot -2.55705 1.14736
ltoes 4.3649
358
root -12.8032 17.4798 15.8014 -1.46651 -50.6438 2.7998
lowerback 5.43013 0.711318 -2.41923
upperback -0.0745363 0.838453 1.50254
thorax -3.18079 0.4659 2.84269
lowerneck -13.3671 -3.8307 -11.4027
upperneck 21.1744 -4.57005 7.44483
head 9.30069 -2.32094 3.92124
rclavicle -4.50744e-014 -7.95139e-016
rhumerus -30.5952 -16.0274 -77.8412
rradius 30.2902
rwrist 6.41314
rhand -11.4196 17.1777
rfingers 7.12502
rthumb 14.6162 -12.2873
lclavicle -4.50744e-014 -7.95139e-016
lhumerus -34.9915 17.2597 81.4318
lradius 20.8717
lwrist -14.5703
lhand -11.2181 25.3691
lfingers 7.12502
lthumb 14.8104 54.8199
rfemur -4.49503 2.0534 21.7353
rtibia 52.894
rfoot 10.088 7.38062
rtoes 4.66512
lfemur -18.8857 0.434549 -25.9829
ltibia 23.7729
lfoot -2.89869 1.15012
ltoes 4.09922
